# xmcd CD database file
#
# Track frame offsets:
#	150
#	21489
#	38726
#
# Disc length: 807 seconds
#
# Revision: 0
# Processed by: cddbd v1.5.1PL0 Copyright (c) Steve Scherf et al.
# Submitted via: CDex 1.51
#
DISCID=1e032503
DTITLE=Sugar - 風と花束／Present／Heart and Soul
DYEAR=2004
DGENRE=JPop
TTITLE0=風と花束
TTITLE1=Present
TTITLE2=Heart and Soul
EXTD=YEAR: 2004
EXTT0=
EXTT1=
EXTT2=
PLAYORDER=
